<svg width="168" height="54" viewBox="0 0 168 54" fill="none" xmlns="http://www.w3.org/2000/svg">
<path d="M62.207 40.6355L68.7811 3.36511H81.1939L76.1549 31.9391H89.93L88.3785 40.6355H62.207Z" fill="white"/>
<path d="M91.5566 40.6355L96.298 13.801H107.893L103.151 40.6355H91.5566ZM96.8349 10.7572L98.142 3.36517H109.737L108.43 10.7572H96.8349Z" fill="white"/>
<path d="M109.053 40.6355L112.279 22.0008C112.9 18.2741 113.21 15.5404 113.21 13.801H124.317C124.4 14.7541 124.358 16.1619 124.193 18.0253C126.468 14.3815 129.818 12.7249 134.245 13.0556L132.012 25.4787C130.936 24.8992 129.841 24.6095 128.723 24.6095C126.943 24.6095 125.537 25.0753 124.503 26.007C123.468 26.9387 122.765 28.5441 122.393 30.821L120.656 40.6355H109.053Z" fill="white"/>
<path d="M167.999 13.8012L164.773 32.4358C164.152 36.1626 163.842 38.8962 163.842 40.6346H153.356C153.272 39.7654 153.272 38.5849 153.356 37.0942C151.536 39.9517 148.64 41.38 144.669 41.38C141.028 41.38 138.287 39.9517 136.447 37.0942C134.607 34.2368 134.037 30.8202 134.742 26.8447C135.486 22.7873 137.233 19.4742 139.985 16.9064C142.735 14.3397 146.138 13.0548 150.192 13.0548C151.267 13.0548 152.529 13.2934 153.977 13.7694C155.424 14.2455 156.583 14.9397 157.452 15.8499L159.376 13.8002H167.999V13.8012ZM149.199 33.5539C151.846 33.5539 153.542 31.4417 154.287 27.2184C154.617 25.2721 154.535 23.7302 154.038 22.5907C153.542 21.4522 152.632 20.883 151.308 20.883C148.66 20.883 146.964 22.9951 146.22 27.2184C145.888 29.1657 145.971 30.7076 146.468 31.8461C146.965 32.9856 147.874 33.5539 149.199 33.5539Z" fill="white"/>
<path d="M68.6518 44.9682L68.4278 46.4323C67.8203 45.8241 67.1341 45.521 66.368 45.521C65.6215 45.521 64.9843 45.8006 64.4576 46.3575C63.9299 46.9155 63.5913 47.6977 63.442 48.7041C63.2927 49.7607 63.395 50.5798 63.7478 51.1623C64.1007 51.7449 64.6304 52.0367 65.3371 52.0367C65.7053 52.0367 66.0142 51.9619 66.2627 51.8125L66.6063 49.8549H65.5468L65.7554 48.6591H68.3235L67.6219 52.6039C67.3335 52.7738 67.132 52.8875 67.0175 52.9479C66.9029 53.0073 66.6564 53.0902 66.278 53.1946C65.8996 53.2991 65.5018 53.3513 65.0835 53.3513C63.9391 53.3513 63.0636 52.9233 62.4561 52.0664C61.8486 51.2094 61.64 50.074 61.8292 48.6591C62.0184 47.2442 62.5257 46.1364 63.352 45.3347C64.1784 44.5331 65.1827 44.1317 66.367 44.1317C66.8047 44.1317 67.2333 44.2065 67.6505 44.3559C68.0688 44.5044 68.4022 44.7092 68.6518 44.9682Z" fill="white"/>
<path d="M75.1 44.2504L74.8761 45.5353H71.9797L71.5553 47.926H73.8544L73.6304 49.1965H71.3293L70.8435 51.9312H73.7398L73.5015 53.2161H69.0107L70.6011 44.2494H75.1V44.2504Z" fill="white"/>
<path d="M80.4889 44.8629L79.996 46.0588C79.4283 45.6103 78.8566 45.3861 78.2788 45.3861C77.9597 45.3861 77.6989 45.4834 77.4954 45.6779C77.2908 45.8724 77.1743 46.1192 77.1446 46.4181C77.1149 46.7068 77.1691 46.9761 77.3093 47.2249C77.4483 47.4737 77.6918 47.6631 78.0405 47.7931C79.5828 48.3511 80.27 49.3022 80.1003 50.6475C79.9806 51.5946 79.6319 52.2836 79.055 52.7177C78.4782 53.1508 77.791 53.3678 76.9953 53.3678C75.9797 53.3678 75.1646 53.029 74.5469 52.3512L75.0838 51.0509C75.6708 51.7389 76.3325 52.0819 77.0689 52.0819C77.4371 52.0819 77.7531 51.9775 78.017 51.7676C78.2808 51.5587 78.4322 51.2495 78.4721 50.841C78.5519 50.1233 78.1336 49.591 77.2182 49.2418C75.9347 48.7432 75.3722 47.8566 75.5318 46.5819C75.631 45.8048 75.9327 45.1967 76.4348 44.7585C76.937 44.3203 77.5772 44.1012 78.3535 44.1012C79.19 44.1012 79.9019 44.3551 80.4889 44.8629Z" fill="white"/>
<path d="M87.1775 44.2504L86.9688 45.5353H84.7884L83.4251 53.2171H81.8184L83.1817 45.5353H81.0166L81.2406 44.2504H87.1775Z" fill="white"/>
<path d="M89.6246 44.2504L88.0374 53.2171H86.4307L88.0179 44.2504H89.6246Z" fill="white"/>
<path d="M97.3571 48.8537C97.1484 50.2287 96.6483 51.3272 95.8567 52.1483C95.0651 52.9705 94.1324 53.381 93.0575 53.381C91.953 53.381 91.1093 52.9377 90.5273 52.0511C89.9454 51.1644 89.7633 50.0188 89.9822 48.6141C90.1908 47.2391 90.691 46.1405 91.4825 45.3194C92.2731 44.4973 93.2069 44.0867 94.2817 44.0867C95.3761 44.0867 96.2147 44.5301 96.7976 45.4167C97.3796 46.3033 97.5657 47.449 97.3571 48.8537ZM95.6706 48.7789C95.8301 47.6834 95.7729 46.8459 95.4988 46.2685C95.2247 45.6911 94.7747 45.4013 94.1478 45.4013C93.5505 45.4013 93.0279 45.6778 92.5799 46.2306C92.132 46.7835 91.8282 47.6036 91.6697 48.6888C91.5102 49.7843 91.5674 50.6218 91.8415 51.1993C92.1146 51.7777 92.5656 52.0664 93.1925 52.0664C93.7898 52.0664 94.3124 51.79 94.7604 51.2371C95.2073 50.6843 95.511 49.8652 95.6706 48.7789ZM96.0132 42.3974L93.7591 43.4735L93.5198 43.0998L95.4303 41.5005L96.0132 42.3974Z" fill="white"/>
<path d="M105.336 44.2504L103.746 53.2171H102.552L100.208 47.3147L99.1698 53.2171H97.7451L99.3232 44.2504H100.501L102.857 50.1815L103.91 44.2504H105.336Z" fill="white"/>
<path d="M21.848 43.7385C21.848 33.3242 21.848 22.9897 21.848 12.5804C20.7925 12.5804 19.8117 12.5804 18.7144 12.5804C18.7144 22.703 18.7144 32.7805 18.7144 43.1212C17.6405 42.5816 16.7262 42.1967 15.907 41.6643C15.6666 41.5076 15.6145 40.9343 15.6145 40.5524C15.5991 31.7035 15.6022 22.8545 15.6022 14.0056C15.6022 13.5572 15.6022 13.1077 15.6022 12.5313C14.5549 12.5313 13.5721 12.5313 12.5371 12.5313C12.5371 11.445 12.5371 10.4857 12.5371 9.45264C19.7841 9.45264 27.0015 9.45264 34.2751 9.45264C34.2751 10.4396 34.2751 11.3989 34.2751 12.4914C33.2728 12.4914 32.292 12.4914 31.211 12.4914C31.211 13.0667 31.211 13.5101 31.211 13.9534C31.211 22.6641 31.1803 31.3738 31.2458 40.0835C31.255 41.3315 30.8827 42.0308 29.7506 42.4127C29.2617 42.5775 28.7953 42.8069 28.1551 43.0771C28.1551 32.8573 28.1551 22.7562 28.1551 12.5815C27.0332 12.5815 26.0524 12.5815 24.9714 12.5815C24.9714 13.0708 24.9714 13.5152 24.9714 13.9585C24.9714 23.3972 24.9714 32.8368 24.9714 42.2755C24.9714 43.9351 24.91 44.0037 23.2235 43.9361C22.7838 43.9177 22.3481 43.8123 21.848 43.7385Z" fill="#D17901"/>
<path d="M38.6345 38.3502C41.5871 32.9024 40.9837 27.7321 37.9626 22.6569C37.6589 22.1471 37.4727 21.4836 37.4686 20.8898C37.4328 15.4789 37.4093 10.068 37.4697 4.65808C37.4973 2.17018 39.2318 0.323199 41.5667 0.0355035C43.7727 -0.236834 45.8703 1.11155 46.5678 3.24827C47.2551 5.35428 46.4553 7.52172 44.463 8.70322C43.8688 9.05541 43.6704 9.43423 43.6776 10.1028C43.7103 13.0852 43.6653 16.0686 43.7134 19.051C43.7236 19.6766 43.8944 20.3574 44.1838 20.9113C47.8452 27.8938 47.4596 34.7616 43.6817 41.5537C43.5999 41.7011 43.4925 41.8342 43.3309 42.0718C41.7631 40.8288 40.232 39.6156 38.6345 38.3502Z" fill="#D17901"/>
<path d="M8.14116 38.3799C6.57231 39.6239 5.0597 40.8238 3.4755 42.08C2.01812 39.7866 1.10176 37.3489 0.525969 34.7658C-0.558118 29.9026 0.36847 25.3548 2.58982 20.982C2.90278 20.3657 3.0838 19.6162 3.09709 18.9241C3.15232 16.0124 3.1063 13.0996 3.13084 10.1868C3.13596 9.51006 2.99994 9.07083 2.33823 8.68792C0.315287 7.51769 -0.472209 5.25811 0.280515 3.13571C1.0179 1.05837 3.09403 -0.234722 5.25709 0.0355677C7.51628 0.318144 9.28457 2.09346 9.31934 4.4585C9.40116 10.0046 9.3623 15.5527 9.33059 21.0998C9.32752 21.624 9.12298 22.2035 8.84991 22.6611C5.83288 27.727 5.21618 32.9014 8.14116 38.3799Z" fill="#D17901"/>
<path d="M36.8288 40.8884C38.4334 42.161 39.9747 43.3834 41.5159 44.6059C32.5119 55.9939 14.784 56.3789 5.29004 44.613C6.82719 43.3947 8.36332 42.1763 9.96695 40.9037C13.6222 44.7554 18.0209 47.0139 23.3544 47.0477C28.7104 47.0805 33.1408 44.9069 36.8288 40.8884Z" fill="#D17901"/>
</svg>
